<?xml version="1.0" standalone="no"?>
<!DOCTYPE svg PUBLIC "-//W3C//DTD SVG 20010904//EN"
 "http://www.w3.org/TR/2001/REC-SVG-20010904/DTD/svg10.dtd">
<svg version="1.0" xmlns="http://www.w3.org/2000/svg"
 width="373.000000pt" height="373.000000pt" viewBox="0 0 373.000000 373.000000"
 preserveAspectRatio="xMidYMid meet">
<metadata>
Created by potrace 1.11, written by Peter Selinger 2001-2013
</metadata>
<g transform="translate(0.000000,373.000000) scale(0.100000,-0.100000)"
fill="#000000" stroke="none">
<path d="M2018 3723 c12 -2 30 -2 40 0 9 3 -1 5 -23 4 -22 0 -30 -2 -17 -4z"/>
<path d="M1809 3716 c-2 -2 -24 -6 -49 -10 -25 -3 -54 -8 -65 -10 -45 -12 -94
-13 -98 -3 -4 14 -142 -18 -257 -60 -96 -36 -286 -125 -395 -186 -162 -90
-455 -335 -495 -414 -20 -38 -70 -114 -93 -138 -80 -85 -182 -315 -238 -532
-16 -63 -31 -118 -33 -122 -5 -8 -11 -35 -27 -121 -11 -67 -24 -408 -15 -399
4 4 7 57 7 119 0 62 2 110 5 107 3 -3 7 -63 10 -134 4 -118 11 -219 20 -268 1
-11 6 -39 9 -63 14 -104 41 -219 56 -236 8 -9 -8 72 -18 87 -3 6 -1 7 4 4 15
-9 37 -103 29 -123 -3 -8 -2 -13 3 -10 5 3 14 -14 21 -39 7 -24 26 -66 44 -92
17 -27 56 -89 86 -138 66 -110 141 -215 152 -215 4 0 8 -5 8 -10 0 -12 156
-167 245 -244 91 -79 134 -108 147 -100 6 4 8 3 5 -4 -19 -29 309 -193 433
-215 14 -3 50 -12 82 -21 31 -10 69 -14 85 -11 19 5 24 4 15 -3 -11 -7 -8 -10
11 -14 17 -3 24 -1 21 7 -4 9 16 8 78 -2 97 -16 312 -20 413 -8 39 5 79 8 90
9 11 0 23 5 27 10 5 7 8 6 8 -3 0 -11 4 -9 15 5 8 11 15 14 15 7 0 -7 10 -13
23 -12 21 0 21 1 2 8 -18 7 -17 8 7 13 15 3 32 0 39 -6 9 -8 10 -8 6 0 -4 7
15 16 50 24 33 7 51 15 44 20 -9 5 -5 9 11 13 34 10 57 6 28 -4 -23 -8 -22 -8
6 -4 17 2 53 18 81 35 44 27 65 36 96 39 14 2 7 21 -9 21 -9 0 -12 -5 -8 -12
4 -6 3 -8 -3 -5 -6 4 -34 -2 -64 -13 -52 -19 -95 -27 -54 -10 77 32 155 58
150 50 -3 -5 -1 -11 5 -15 5 -3 10 -2 10 4 0 6 8 8 18 4 9 -3 14 -3 10 2 -4 4
28 30 72 56 45 26 91 57 103 68 12 11 67 53 122 94 95 71 274 245 312 304 10
16 26 37 35 47 10 11 18 26 18 35 0 8 3 11 7 7 4 -3 15 12 25 34 10 22 23 40
29 40 6 0 8 4 5 9 -3 5 1 11 9 15 9 3 12 12 8 22 -4 12 -3 15 5 10 8 -5 12 0
12 13 0 12 5 21 10 21 6 0 9 3 8 8 -2 4 8 31 22 60 24 50 40 66 40 40 0 -21
17 11 46 84 20 52 23 71 15 85 -9 15 -10 12 -5 -12 4 -24 3 -27 -6 -15 -9 12
-10 10 -5 -9 5 -15 3 -21 -3 -17 -6 4 -8 -3 -5 -16 4 -19 3 -20 -7 -8 -9 12
-10 11 -5 -7 3 -13 2 -30 -3 -39 -9 -16 -11 -15 -21 4 -10 19 -9 21 6 15 14
-5 16 -3 6 7 -9 10 -9 19 2 40 26 50 67 223 61 255 -5 22 -3 26 4 15 8 -11 9
-5 4 23 -4 25 -3 37 5 37 7 0 9 5 6 10 -4 6 -1 18 7 27 9 12 9 15 1 9 -9 -5
-13 0 -13 13 0 13 7 21 18 22 15 0 15 1 -2 8 -11 4 -21 18 -23 32 -2 18 -1 20
6 10 7 -10 10 9 10 58 0 40 3 76 6 79 3 3 5 -31 5 -76 0 -55 -4 -82 -12 -85
-10 -4 -10 -6 0 -6 19 -1 23 18 25 134 4 154 -9 272 -44 414 -29 118 -78 266
-85 258 -2 -1 12 -50 30 -107 18 -57 32 -119 31 -137 -1 -19 2 -30 8 -26 7 4
8 -8 4 -33 -4 -27 -3 -34 3 -24 8 12 10 12 11 -5 0 -11 2 -28 4 -38 2 -9 0
-15 -4 -13 -3 2 -6 -24 -6 -59 0 -35 3 -61 7 -59 4 3 4 -5 -1 -18 -4 -13 -5
-35 0 -51 4 -15 4 -25 -1 -22 -11 7 -7 -36 5 -54 5 -9 4 -12 -2 -8 -6 4 -10
-9 -10 -31 1 -51 -11 -165 -24 -236 -6 -32 -8 -65 -5 -73 3 -8 1 -11 -4 -8 -6
3 -10 0 -11 -7 -1 -25 -8 -54 -19 -79 -8 -20 -9 -16 -5 21 4 39 2 35 -19 -30
-50 -160 -130 -333 -177 -384 -11 -11 -17 -26 -15 -33 3 -7 2 -12 -2 -10 -4 1
-8 -1 -10 -5 -1 -4 -14 -19 -27 -34 -14 -15 -22 -32 -18 -38 3 -6 3 -8 -1 -4
-9 7 -132 -142 -128 -155 1 -4 -1 -6 -6 -5 -12 4 -93 -58 -85 -65 3 -4 -1 -7
-10 -7 -8 0 -17 -3 -19 -7 -6 -15 -114 -101 -188 -150 -98 -66 -223 -134 -249
-136 -12 -1 -21 -5 -21 -10 0 -5 -10 -5 -22 -2 -17 4 -19 4 -9 -3 10 -8 5 -12
-20 -18 -19 -5 -38 -9 -44 -9 -5 0 -13 -4 -16 -9 -4 -5 -20 -9 -37 -10 -17 0
-28 -4 -26 -7 2 -4 -3 -10 -12 -13 -8 -3 -12 -2 -9 4 3 6 1 10 -4 10 -6 0 -11
-5 -11 -11 0 -5 -3 -8 -8 -5 -4 2 -34 -2 -67 -10 -91 -21 -135 -28 -190 -28
-27 -1 -53 -5 -57 -11 -5 -6 -8 -5 -8 3 0 6 -5 12 -11 12 -5 0 -8 -3 -6 -7 3
-5 -6 -9 -20 -10 -20 -1 -22 1 -12 8 9 7 -22 9 -89 7 -56 -2 -102 1 -102 6 0
4 -20 6 -44 5 -24 -2 -42 -1 -39 3 2 5 -6 8 -19 8 -29 0 -218 48 -233 59 -5 4
-39 18 -75 31 -97 34 -210 92 -203 103 3 6 1 7 -5 4 -15 -10 -43 3 -35 16 3 6
1 7 -5 3 -13 -8 -67 17 -78 35 -5 8 -3 9 6 4 9 -6 11 -4 6 4 -5 7 -15 10 -24
6 -9 -3 -13 -3 -10 1 10 9 -20 36 -32 29 -6 -4 -9 -2 -8 2 2 5 -24 32 -57 60
-33 28 -78 69 -99 91 -22 23 -44 38 -50 35 -6 -3 -8 -3 -4 2 11 11 -12 36 -25
28 -6 -3 -7 -1 -3 6 4 7 -5 26 -21 45 -51 61 -59 71 -118 166 -128 208 -209
420 -233 615 -19 155 4 553 29 489 4 -10 5 -41 3 -69 -3 -27 -6 -90 -8 -140
-2 -49 -7 -98 -11 -107 -4 -11 -3 -18 5 -18 6 0 8 -5 3 -12 -11 -19 -13 -39
-2 -32 5 3 9 -7 9 -23 0 -15 5 -35 10 -43 7 -10 8 5 4 50 -4 36 -7 70 -7 75
12 366 73 592 215 804 39 58 87 126 107 151 19 24 29 40 21 36 -8 -5 0 5 19
23 19 17 32 31 28 31 -10 0 39 55 108 120 181 172 271 234 444 304 83 34 89
28 8 -8 -80 -36 -150 -76 -144 -83 3 -2 16 2 29 11 29 19 163 75 193 80 11 2
52 13 90 24 39 12 97 26 130 32 33 5 102 18 153 29 99 19 267 20 303 0 11 -5
25 -7 31 -3 7 5 8 3 3 -6 -6 -10 -3 -12 13 -8 12 3 22 2 24 -2 2 -4 30 -11 63
-14 33 -4 76 -11 95 -16 19 -5 54 -11 77 -14 39 -4 142 -43 153 -56 9 -12 53
-33 85 -40 16 -4 39 -11 50 -16 17 -7 18 -6 7 8 -26 32 30 6 108 -49 41 -30
87 -62 102 -71 16 -9 28 -22 28 -27 0 -6 20 -31 45 -55 25 -24 45 -39 45 -32
0 7 10 10 23 8 12 -2 21 -9 20 -14 -2 -6 18 -28 43 -49 25 -21 54 -47 65 -58
10 -11 37 -40 59 -64 26 -28 45 -41 55 -37 9 3 13 2 10 -4 -3 -6 1 -10 9 -10
9 0 16 7 16 15 0 8 -4 15 -9 15 -5 0 -7 10 -4 23 3 15 2 18 -5 9 -6 -9 -19 10
-46 68 -52 114 -55 125 -46 141 7 11 13 10 30 -9 19 -20 33 -26 53 -23 4 0 7
-5 7 -12 0 -8 21 -26 48 -41 26 -14 67 -43 92 -63 25 -21 36 -27 25 -14 l-20
24 25 -13 c13 -7 31 -19 38 -27 7 -7 23 -12 35 -12 17 1 18 2 5 6 -10 2 -18 9
-18 15 0 6 3 8 7 5 3 -4 12 -2 19 3 14 12 35 10 47 -5 12 -15 46 32 40 55 -3
11 -9 17 -15 14 -5 -3 -5 -11 -1 -18 4 -7 -2 0 -14 14 -26 29 -29 42 -8 34 8
-4 12 -11 8 -17 -3 -6 -1 -7 5 -3 17 10 3 35 -18 31 -14 -3 -33 15 -71 68 -29
40 -55 74 -59 77 -7 6 -62 87 -74 110 -5 8 10 -5 33 -30 l42 -45 -37 55 c-51
75 -75 101 -87 93 -6 -3 -7 -1 -3 5 4 7 -3 17 -18 23 -14 7 -23 17 -19 23 3 6
3 8 -2 4 -4 -4 -30 6 -59 22 -81 45 -152 70 -274 96 -63 13 -128 32 -145 42
-18 11 -49 23 -69 26 -21 4 -37 12 -35 17 1 6 -29 21 -68 33 -38 11 -75 24
-80 28 -14 9 -243 64 -327 78 -38 7 -68 15 -68 18 0 3 46 2 103 -1 l102 -6
-65 15 c-40 9 -132 15 -237 17 -94 1 -175 5 -179 10 -8 7 -38 10 -45 3z m155
-307 c3 -3 -7 -5 -23 -5 -16 1 -32 3 -35 6 -3 3 8 5 24 5 16 0 31 -3 34 -6z
m282 -24 c101 -16 201 -49 404 -132 146 -60 146 -61 138 -68 -3 -3 -34 8 -70
25 -36 16 -77 31 -91 34 -33 6 -189 52 -245 72 -23 9 -39 20 -36 25 3 6 -6 7
-23 4 -19 -5 -24 -4 -14 3 16 11 -50 28 -149 37 -36 3 -72 10 -80 15 -17 11
18 7 166 -15z m-1106 -100 c0 -2 -22 -16 -50 -30 -27 -14 -50 -23 -50 -20 0 2
21 16 48 29 53 28 52 28 52 21z m2194 -61 c3 -8 2 -12 -4 -9 -6 3 -10 10 -10
16 0 14 7 11 14 -7z m-2324 -14 c-14 -11 -37 -28 -53 -37 -15 -10 -30 -26 -33
-36 -3 -10 -8 -16 -11 -13 -3 3 -17 -6 -30 -20 -12 -14 -23 -22 -23 -19 0 3
-6 0 -14 -7 -8 -7 -11 -17 -8 -22 3 -5 1 -6 -5 -3 -11 7 -49 -33 -44 -48 1 -5
-1 -7 -5 -3 -9 10 -35 -12 -28 -23 3 -5 0 -8 -7 -7 -7 2 -13 -3 -14 -10 0 -6
-18 -28 -39 -47 -22 -19 -36 -35 -31 -35 5 0 -1 -7 -13 -16 -12 -8 -20 -19
-18 -23 3 -4 -1 -8 -9 -8 -11 0 -12 3 -1 19 29 42 164 187 208 223 25 22 44
43 42 47 -2 3 30 29 73 57 79 53 107 66 63 31z m1879 -46 c10 -9 -35 -3 -49 6
-11 8 -7 9 15 4 17 -4 32 -8 34 -10z m-73 -46 c24 -17 42 -33 40 -36 -4 -3
-58 32 -90 60 -26 22 11 4 50 -24z m465 -185 c13 -16 12 -17 -3 -4 -17 13 -22
21 -14 21 2 0 10 -8 17 -17z m-2844 -347 c-34 -68 -63 -123 -65 -122 -7 8 113
246 124 246 2 0 -24 -56 -59 -124z m-90 -218 c-3 -8 -6 -5 -6 6 -1 11 2 17 5
13 3 -3 4 -12 1 -19z m-10 -220 c-3 -7 -5 -2 -5 12 0 14 2 19 5 13 2 -7 2 -19
0 -25z m-100 -420 c-3 -7 -5 -2 -5 12 0 14 2 19 5 13 2 -7 2 -19 0 -25z m3300
-90 c-2 -13 -4 -5 -4 17 -1 22 1 32 4 23 2 -10 2 -28 0 -40z m-3290 -10 c-3
-7 -5 -2 -5 12 0 14 2 19 5 13 2 -7 2 -19 0 -25z m3223 -448 c0 -4 -9 -6 -21
-3 -15 4 -17 8 -8 14 14 8 29 3 29 -11z m-3039 -100 c18 -36 48 -87 66 -114
18 -28 30 -52 28 -55 -3 -2 -6 -2 -8 0 -1 2 -17 25 -35 51 -17 25 -32 53 -32
61 0 9 -3 17 -7 19 -5 2 -21 30 -36 63 -37 77 -20 60 24 -25z m139 -225 c14
-19 14 -19 -2 -6 -10 7 -18 18 -18 24 0 6 1 8 3 6 1 -2 9 -13 17 -24z m-59
-172 c13 -16 12 -17 -3 -4 -10 7 -18 15 -18 17 0 8 8 3 21 -13z m2539 13 c0
-2 -6 -9 -14 -15 -11 -9 -16 -9 -22 0 -4 7 -3 9 4 5 6 -3 13 -2 17 4 6 10 15
14 15 6z m-2285 -56 c10 -11 16 -20 13 -20 -3 0 -13 9 -23 20 -10 11 -16 20
-13 20 3 0 13 -9 23 -20z m2220 -5 c-16 -14 -48 -39 -70 -56 l-40 -31 35 32
c19 17 34 37 32 43 -2 7 0 9 4 5 3 -4 18 2 32 12 36 29 42 24 7 -5z m-740
-373 c-3 -3 -11 0 -18 7 -9 10 -8 11 6 5 10 -3 15 -9 12 -12z m-377 -19 c-10
-2 -26 -2 -35 0 -10 3 -2 5 17 5 19 0 27 -2 18 -5z m427 -73 c3 -6 -1 -7 -9
-4 -18 7 -21 14 -7 14 6 0 13 -4 16 -10z"/>
<path d="M709 2943 c-13 -16 -12 -17 4 -4 9 7 17 15 17 17 0 8 -8 3 -21 -13z"/>
<path d="M2810 3488 c8 -9 29 -19 45 -22 l30 -6 -30 11 c-16 7 -37 16 -45 22
-13 10 -13 9 0 -5z"/>
<path d="M1078 3140 c-27 -17 -48 -32 -48 -35 0 -3 23 9 50 26 28 17 50 33 50
35 0 6 -2 5 -52 -26z"/>
<path d="M999 3083 c-13 -16 -12 -17 4 -4 9 7 17 15 17 17 0 8 -8 3 -21 -13z"/>
<path d="M3506 2995 c16 -22 29 -42 31 -44 2 -2 3 0 3 5 0 5 -14 25 -31 44
l-30 35 27 -40z"/>
<path d="M3181 2940 c14 -31 19 -36 19 -24 0 6 -7 19 -16 30 -14 18 -14 18 -3
-6z"/>
<path d="M3210 2878 c0 -2 9 -21 20 -43 11 -22 20 -32 20 -21 0 10 -9 29 -20
43 -11 14 -20 24 -20 21z"/>
<path d="M3390 2634 c0 -6 7 -19 16 -30 14 -18 14 -18 3 6 -14 31 -19 36 -19
24z"/>
<path d="M3421 2575 c0 -5 6 -21 14 -35 8 -14 14 -20 14 -15 0 6 -6 21 -14 35
-8 14 -14 21 -14 15z"/>
<path d="M3542 2352 c35 -143 55 -272 59 -387 l2 -60 7 55 7 55 1 -52 c1 -28
-2 -55 -8 -58 -5 -3 -10 -17 -10 -31 0 -14 4 -22 10 -19 6 4 10 -7 9 -27 -1
-31 -1 -32 -10 -8 -6 18 -7 7 -5 -37 2 -35 0 -61 -3 -58 -4 2 -8 -13 -9 -33
-3 -39 -5 -54 -21 -139 -6 -29 -8 -60 -4 -70 5 -12 3 -14 -7 -8 -10 6 -12 4
-7 -7 3 -9 3 -19 -1 -22 -8 -8 -14 -35 -14 -63 0 -13 -4 -21 -8 -18 -5 3 -5
-5 -2 -17 5 -18 11 -6 29 52 13 41 22 85 20 97 -2 12 0 24 5 25 4 2 14 46 21
98 11 81 14 90 20 60 4 -19 5 -46 2 -60 -3 -13 -7 -41 -10 -61 -3 -20 -10 -50
-15 -67 -5 -18 -5 -32 -1 -32 7 0 25 81 46 210 14 86 4 393 -15 430 -4 8 -10
31 -14 50 -6 32 -25 101 -63 222 -24 78 -32 64 -11 -20z"/>
<path d="M3520 2150 c0 -5 5 -10 11 -10 5 0 7 5 4 10 -3 6 -8 10 -11 10 -2 0
-4 -4 -4 -10z"/>
<path d="M3673 1803 c2 -21 -11 -134 -19 -178 -18 -104 -81 -329 -83 -298 -1
6 4 24 9 39 6 15 9 29 6 31 -2 2 -12 -20 -21 -49 -27 -80 -28 -85 -11 -58 18
30 21 21 5 -14 -7 -14 -16 -23 -22 -19 -5 3 -6 -3 -2 -17 5 -15 4 -20 -4 -16
-10 7 -16 -6 -12 -27 3 -17 -74 -165 -134 -257 -51 -79 -136 -190 -180 -236
-5 -6 -37 -41 -69 -77 -32 -37 -63 -67 -69 -67 -5 0 -18 -10 -28 -22 -11 -11
-19 -17 -19 -11 0 12 41 52 55 52 6 1 10 7 10 14 1 6 7 11 14 9 7 -1 10 2 7 7
-3 5 1 14 9 21 8 7 15 16 15 21 0 5 -30 -21 -67 -57 -64 -61 -198 -168 -288
-228 -57 -38 -36 -32 32 9 60 36 97 48 53 18 -14 -10 -70 -44 -125 -75 -100
-58 -119 -75 -43 -38 23 11 44 18 46 15 3 -2 -26 -19 -64 -36 -105 -47 -118
-52 -128 -50 -5 1 -12 -2 -15 -8 -6 -8 -104 -47 -196 -76 -56 -18 -185 -45
-213 -45 -14 0 -21 -4 -16 -11 4 -7 0 -9 -14 -5 -11 4 -23 2 -27 -4 -3 -5 -27
-11 -53 -11 -46 -2 -46 -2 -12 -9 l35 -7 -42 -3 c-24 -1 -47 -4 -53 -5 -5 -1
-47 -4 -92 -5 -69 -3 -76 -4 -38 -9 80 -11 284 -3 385 14 196 34 345 81 513
161 119 56 252 138 252 155 0 6 5 7 10 4 6 -3 10 -2 10 4 0 6 30 34 68 64 122
98 287 270 276 288 -4 7 -3 9 4 5 6 -3 16 3 22 14 6 11 8 20 5 20 -3 0 7 12
22 26 15 15 19 20 9 13 -18 -13 -18 -13 -6 8 8 12 17 20 21 17 4 -2 11 1 15 7
4 8 3 9 -4 5 -18 -11 -15 3 9 40 11 19 18 34 15 34 -4 0 6 14 21 31 15 17 28
36 28 42 1 20 29 87 37 87 4 0 4 7 1 17 -5 12 -3 14 7 8 8 -5 11 -4 7 2 -3 5
9 48 28 95 19 47 36 96 39 109 3 13 17 65 31 114 14 50 27 110 29 135 3 25 7
65 11 90 10 76 13 200 5 200 -4 0 -7 -8 -7 -17z m-336 -1068 c0 -8 -4 -12 -8
-9 -8 5 -26 -22 -28 -41 -1 -5 -6 -10 -12 -10 -6 0 -17 -9 -25 -19 -8 -11 -14
-16 -14 -12 0 7 79 106 84 106 2 0 3 -7 3 -15z m-147 -119 c0 -2 -8 -10 -17
-17 -16 -13 -17 -12 -4 4 13 16 21 21 21 13z m10 -30 c0 -2 -8 -10 -17 -17
-16 -13 -17 -12 -4 4 13 16 21 21 21 13z m-77 -39 c-67 -77 -234 -204 -293
-222 -14 -4 -30 -12 -37 -17 -7 -5 -16 -7 -22 -4 -5 3 -12 0 -14 -6 -4 -10 -6
-10 -6 -1 -1 7 8 17 19 23 11 6 20 8 20 6 0 -9 235 152 295 202 33 28 62 51
63 51 2 1 -9 -14 -25 -32z m-71 -107 c-12 -11 -51 -42 -87 -69 -36 -28 -65
-53 -65 -58 1 -4 -9 -15 -21 -23 -18 -12 -21 -12 -15 -1 6 9 5 12 -5 9 -8 -3
-13 -10 -12 -16 2 -7 -4 -9 -14 -5 -12 5 -14 3 -8 -7 6 -10 4 -12 -9 -7 -10 4
-15 3 -11 -3 8 -12 -124 -75 -240 -115 -44 -15 -86 -32 -92 -37 -7 -6 -13 -8
-13 -4 0 3 -11 1 -26 -4 -14 -6 -39 -12 -57 -15 -18 -4 -50 -10 -72 -15 -22
-5 -64 -11 -94 -15 -30 -3 -58 -8 -63 -11 -4 -3 -8 -1 -8 4 0 5 45 16 100 26
55 10 98 21 95 26 -3 4 6 7 20 6 13 -2 22 0 20 4 -5 9 138 62 172 64 11 0 19
4 17 8 -6 9 56 29 69 21 5 -3 7 -1 4 4 -4 6 0 14 9 17 8 3 12 2 9 -4 -3 -6 1
-7 9 -4 9 3 13 11 9 17 -3 5 -1 7 5 3 21 -13 55 6 279 151 45 29 85 57 88 63
3 5 11 10 17 10 7 0 2 -9 -10 -20z m-925 -396 c-3 -3 -12 -4 -19 -1 -8 3 -5 6
6 6 11 1 17 -2 13 -5z"/>
<path d="M2875 310 c-3 -5 -2 -10 4 -10 5 0 13 5 16 10 3 6 2 10 -4 10 -5 0
-13 -4 -16 -10z"/>
<path d="M361 1554 c0 -11 3 -14 6 -6 3 7 2 16 -1 19 -3 4 -6 -2 -5 -13z"/>
<path d="M3585 1430 c-3 -5 -1 -10 4 -10 6 0 11 5 11 10 0 6 -2 10 -4 10 -3 0
-8 -4 -11 -10z"/>
<path d="M435 1278 c4 -13 11 -27 16 -33 5 -5 4 5 -2 23 -12 36 -24 44 -14 10z"/>
<path d="M2710 330 c-9 -6 -10 -10 -3 -10 6 0 15 5 18 10 8 12 4 12 -15 0z"/>
<path d="M2664 304 c-18 -14 -18 -15 4 -4 12 6 22 13 22 15 0 8 -5 6 -26 -11z"/>
</g>
</svg>
